<svg width="20" height="18" viewBox="0 0 20 18" fill="none" xmlns="http://www.w3.org/2000/svg">
<g filter="url(#filter0_d_21_76)">
<path d="M5.83337 15.5C5.37504 15.5 4.98268 15.3368 4.65629 15.0104C4.3299 14.684 4.16671 14.2917 4.16671 13.8333V3H3.33337V1.33333H7.50004V0.5H12.5V1.33333H16.6667V3H15.8334V13.8333C15.8334 14.2917 15.6702 14.684 15.3438 15.0104C15.0174 15.3368 14.625 15.5 14.1667 15.5H5.83337ZM14.1667 3H5.83337V13.8333H14.1667V3ZM7.50004 12.1667H9.16671V4.66667H7.50004V12.1667ZM10.8334 12.1667H12.5V4.66667H10.8334V12.1667Z" fill="#DC2626"/>
</g>
<defs>
<filter id="filter0_d_21_76" x="-0.666626" y="0.5" width="21.3334" height="23" filterUnits="userSpaceOnUse" color-interpolation-filters="sRGB">
<feFlood flood-opacity="0" result="BackgroundImageFix"/>
<feColorMatrix in="SourceAlpha" type="matrix" values="0 0 0 0 0 0 0 0 0 0 0 0 0 0 0 0 0 0 127 0" result="hardAlpha"/>
<feOffset dy="4"/>
<feGaussianBlur stdDeviation="2"/>
<feComposite in2="hardAlpha" operator="out"/>
<feColorMatrix type="matrix" values="0 0 0 0 0 0 0 0 0 0 0 0 0 0 0 0 0 0 0.25 0"/>
<feBlend mode="normal" in2="BackgroundImageFix" result="effect1_dropShadow_21_76"/>
<feBlend mode="normal" in="SourceGraphic" in2="effect1_dropShadow_21_76" result="shape"/>
</filter>
</defs>
</svg>
