<svg width="20" height="18" viewBox="0 0 20 18" fill="none" xmlns="http://www.w3.org/2000/svg">
<g filter="url(#filter0_d_21_72)">
<path d="M4.16667 13.8333H5.35417L13.5 5.6875L12.3125 4.5L4.16667 12.6458V13.8333ZM2.5 15.5V11.9583L13.5 0.979167C13.6667 0.826389 13.8507 0.708333 14.0521 0.625C14.2535 0.541667 14.4653 0.5 14.6875 0.5C14.9097 0.5 15.125 0.541667 15.3333 0.625C15.5417 0.708333 15.7222 0.833333 15.875 1L17.0208 2.16667C17.1875 2.31944 17.309 2.5 17.3854 2.70833C17.4618 2.91667 17.5 3.125 17.5 3.33333C17.5 3.55556 17.4618 3.76736 17.3854 3.96875C17.309 4.17014 17.1875 4.35417 17.0208 4.52083L6.04167 15.5H2.5ZM12.8958 5.10417L12.3125 4.5L13.5 5.6875L12.8958 5.10417Z" fill="#F59E0B"/>
</g>
<defs>
<filter id="filter0_d_21_72" x="-1.5" y="0.5" width="23" height="23" filterUnits="userSpaceOnUse" color-interpolation-filters="sRGB">
<feFlood flood-opacity="0" result="BackgroundImageFix"/>
<feColorMatrix in="SourceAlpha" type="matrix" values="0 0 0 0 0 0 0 0 0 0 0 0 0 0 0 0 0 0 127 0" result="hardAlpha"/>
<feOffset dy="4"/>
<feGaussianBlur stdDeviation="2"/>
<feComposite in2="hardAlpha" operator="out"/>
<feColorMatrix type="matrix" values="0 0 0 0 0 0 0 0 0 0 0 0 0 0 0 0 0 0 0.25 0"/>
<feBlend mode="normal" in2="BackgroundImageFix" result="effect1_dropShadow_21_72"/>
<feBlend mode="normal" in="SourceGraphic" in2="effect1_dropShadow_21_72" result="shape"/>
</filter>
</defs>
</svg>
