<svg width="30" height="22" viewBox="0 0 30 22" fill="none" xmlns="http://www.w3.org/2000/svg">
<path d="M17.6666 12.3335C16.5555 12.3335 15.611 11.9446 14.8333 11.1668C14.0555 10.3891 13.6666 9.44461 13.6666 8.3335C13.6666 7.22239 14.0555 6.27794 14.8333 5.50016C15.611 4.72239 16.5555 4.3335 17.6666 4.3335C18.7777 4.3335 19.7221 4.72239 20.4999 5.50016C21.2777 6.27794 21.6666 7.22239 21.6666 8.3335C21.6666 9.44461 21.2777 10.3891 20.4999 11.1668C19.7221 11.9446 18.7777 12.3335 17.6666 12.3335ZM8.33325 16.3335C7.59992 16.3335 6.97214 16.0724 6.44992 15.5502C5.9277 15.0279 5.66659 14.4002 5.66659 13.6668V3.00016C5.66659 2.26683 5.9277 1.63905 6.44992 1.11683C6.97214 0.594607 7.59992 0.333496 8.33325 0.333496H26.9999C27.7333 0.333496 28.361 0.594607 28.8833 1.11683C29.4055 1.63905 29.6666 2.26683 29.6666 3.00016V13.6668C29.6666 14.4002 29.4055 15.0279 28.8833 15.5502C28.361 16.0724 27.7333 16.3335 26.9999 16.3335H8.33325ZM10.9999 13.6668H24.3333C24.3333 12.9335 24.5944 12.3057 25.1166 11.7835C25.6388 11.2613 26.2666 11.0002 26.9999 11.0002V5.66683C26.2666 5.66683 25.6388 5.40572 25.1166 4.8835C24.5944 4.36127 24.3333 3.7335 24.3333 3.00016H10.9999C10.9999 3.7335 10.7388 4.36127 10.2166 4.8835C9.69436 5.40572 9.06659 5.66683 8.33325 5.66683V11.0002C9.06659 11.0002 9.69436 11.2613 10.2166 11.7835C10.7388 12.3057 10.9999 12.9335 10.9999 13.6668ZM25.6666 21.6668H2.99992C2.26659 21.6668 1.63881 21.4057 1.11659 20.8835C0.594363 20.3613 0.333252 19.7335 0.333252 19.0002V4.3335H2.99992V19.0002H25.6666V21.6668Z" fill="#724C57"/>
</svg>
